<?xml version="1.0" standalone="no"?>
<!DOCTYPE svg PUBLIC "-//W3C//DTD SVG 20010904//EN"
 "http://www.w3.org/TR/2001/REC-SVG-20010904/DTD/svg10.dtd">
<svg version="1.0" xmlns="http://www.w3.org/2000/svg"
 width="260.000000pt" height="260.000000pt" viewBox="0 0 260.000000 260.000000"
 preserveAspectRatio="xMidYMid meet">
<metadata>
Created by potrace 1.11, written by Peter Selinger 2001-2013
</metadata>
<g transform="translate(0.000000,260.000000) scale(0.100000,-0.100000)"
fill="#000000" stroke="none">
<path d="M0 1300 l0 -1300 1300 0 1300 0 0 1300 0 1300 -1300 0 -1300 0 0
-1300z m580 10 l0 -290 145 0 145 0 0 290 0 290 430 0 430 0 0 -290 0 -290
145 0 145 0 0 290 0 290 285 0 285 0 0 -145 0 -145 -140 0 -140 0 0 -290 0
-290 -435 0 -435 0 0 290 0 290 -145 0 -145 0 0 -290 0 -290 -430 0 -430 0 0
290 0 290 -140 0 -140 0 0 145 0 145 285 0 285 0 0 -290z"/>
</g>
</svg>
